<svg width="100" height="100" viewBox="0 0 100 100" fill="none" xmlns="http://www.w3.org/2000/svg">
<path d="M99.9939 83.603V96.965H51.3929H49.9519C22.8349 97.358 2.9229 75.874 3.3159 50.46C2.9229 25.046 22.8349 3.562 49.9519 3.95499C77.0689 3.562 97.1119 25.046 96.7189 50.46C96.9809 63.298 91.8719 75.088 83.4879 83.603H99.9939ZM17.9879 50.46C17.9879 69.193 30.5639 83.472 49.9519 83.472C69.6019 83.472 81.9159 69.193 81.9159 50.46C81.9159 31.858 69.6019 17.317 49.9519 17.317C30.5639 17.317 17.9879 31.858 17.9879 50.46Z" fill="white"/>
<path d="M50 27L51.1121 44.267C51.1681 45.1363 52.2315 45.5233 52.8332 44.8934L64.7841 32.381L54.537 46.3231C54.0212 47.025 54.587 48.0051 55.4528 47.9093L72.6506 46.0061L55.839 50.0997C54.9927 50.3058 54.7962 51.4203 55.521 51.9034L69.9186 61.5L54.4089 53.8296C53.6281 53.4435 52.7611 54.1709 53.0059 55.0069L57.8665 71.6129L50.9158 55.7676C50.5658 54.9699 49.4342 54.9699 49.0842 55.7676L42.1335 71.6129L46.9941 55.0069C47.2389 54.1709 46.3719 53.4435 45.5911 53.8296L30.0814 61.5L44.479 51.9034C45.2038 51.4203 45.0073 50.3058 44.161 50.0997L27.3494 46.0061L44.5472 47.9093C45.413 48.0051 45.9788 47.025 45.463 46.3231L35.2159 32.381L47.1668 44.8934C47.7685 45.5233 48.8319 45.1363 48.8879 44.267L50 27Z" fill="white"/>
</svg>
